# xmcd
#
# Track frame offsets: 
#        150
#        11437
#        27298
#        42363
#        54140
#        66317
#        78130
#        82727
#        95288
#        107304
#        118364
#        123193
#        137427
#        149762
#        160475
#        171202
#        183129
#        193824
#        206839
#        220848
#        238405
#        249745
#        263222
#        274499
#
# Disc length: 3823 seconds
#
# Revision: 4
# Processed by: cddbd v1.5.2PL0 Copyright (c) Steve Scherf et al.
# Submitted via: ExactAudioCopy v1.1
#
DISCID=590eed18
DTITLE=Little Milton - Welcome To The Club - The Essential Chess Recor
DTITLE=dings [CD02)
DYEAR=1994
DGENRE=Blues
TTITLE0=I'm Mighty Grateful (stereo)
TTITLE1=Give Me This Chance (stereo)
TTITLE2=Loving You (stereo)
TTITLE3=Man Loves Two (Man's Temptation) (alt) (stereo)
TTITLE4=Let Me Down Easy (stereo)
TTITLE5=My Baby's Something Else (stereo)
TTITLE6=Things Go Better With Coke #1 (stereo)
TTITLE7=You Colored My Blues Bright (stereo)
TTITLE8=Moanin' For You Girl (stereo)
TTITLE9=You Mean Everything To Me (stereo)
TTITLE10=Things Go Better With Coke #2 (stereo)
TTITLE11=Nothing Beats A Failure (stereo)
TTITLE12=More And More (stereo)
TTITLE13=Don't Talk Back (stereo)
TTITLE14=Twenty-Three Hours (stereo)
TTITLE15=Grits Ain't Groceries (stereo)
TTITLE16=Just A Little Bit (stereo)
TTITLE17=Steal Away (stereo)
TTITLE18=If Walls Could Talk (stereo)
TTITLE19=Spring (stereo)
TTITLE20=I'm Tired (stereo)
TTITLE21=Let's Get Together (stereo)
TTITLE22=I Play Dirty (stereo)
TTITLE23=Baby I Love You (stereo)
EXTD=
EXTT0=
EXTT1=
EXTT2=
EXTT3=
EXTT4=
EXTT5=
EXTT6=
EXTT7=
EXTT8=
EXTT9=
EXTT10=
EXTT11=
EXTT12=
EXTT13=
EXTT14=
EXTT15=
EXTT16=
EXTT17=
EXTT18=
EXTT19=
EXTT20=
EXTT21=
EXTT22=
EXTT23=
PLAYORDER=
